<?xml version="1.0" standalone="no"?><!DOCTYPE svg PUBLIC "-//W3C//DTD SVG 1.1//EN" "http://www.w3.org/Graphics/SVG/1.1/DTD/svg11.dtd"><svg t="1519892067572" class="icon" style="" viewBox="0 0 1073 1024" version="1.1" xmlns="http://www.w3.org/2000/svg" p-id="4610" xmlns:xlink="http://www.w3.org/1999/xlink" width="209.5703125" height="200"><defs><style type="text/css"></style></defs><path d="M828.952381 146.334476 828.952381 48.713143C828.952381 21.796571 807.058286 0 780.190476 0c-26.916571 0-48.761905 21.796571-48.761905 48.713143l0 97.621333C731.428571 173.251048 753.322667 195.047619 780.190476 195.047619 807.107048 195.047619 828.952381 173.251048 828.952381 146.334476z" p-id="4611"></path><path d="M97.52381 292.571429l877.714286 0 0 48.761905-877.714286 0 0-48.761905Z" p-id="4612"></path><path d="M304.761905 195.047619C324.949333 195.047619 341.333333 178.761143 341.333333 158.378667L341.333333 36.668952C341.333333 16.432762 324.998095 0 304.761905 0L280.380952 0C260.193524 0 243.809524 16.286476 243.809524 36.668952l0 121.660952C243.809524 178.614857 260.144762 195.047619 280.380952 195.047619L304.761905 195.047619z" p-id="4613"></path><path d="M390.095238 97.52381l292.571429 0 0 48.761905-292.571429 0 0-48.761905Z" p-id="4614"></path><path d="M438.857143 877.714286l0-390.095238L399.60381 487.619048c-7.021714 26.477714-17.603048 43.300571-31.792762 50.371048C353.572571 545.109333 328.508952 550.180571 292.571429 553.20381l0 33.01181 98.742857 0L391.314286 877.714286 438.857143 877.714286z" p-id="4615"></path><path d="M0 975.238095c0 48.761905 53.638095 48.761905 53.638095 48.761905L1024 1024c0 0 48.761905 0 48.761905-48.761905L1072.761905 97.52381l-195.047619 0 0 48.761905 146.285714 0 0 828.952381L48.761905 975.238095 48.761905 146.285714l146.285714 0L195.047619 97.52381 0 97.52381 0 975.238095z" p-id="4616"></path><path d="M752.737524 540.867048C743.862857 523.215238 748.544 532.577524 752.737524 540.867048L752.737524 540.867048z" p-id="4617"></path><path d="M657.310476 487.619048c-50.809905 0-85.967238 28.818286-105.374476 86.454857C541.549714 604.988952 536.380952 642.048 536.380952 685.202286c0 55.686095 8.630857 100.059429 25.892571 133.12C582.997333 857.916952 614.595048 877.714286 657.066667 877.714286c47.055238 0 80.944762-24.234667 101.668571-72.655238 14.287238-33.792 21.455238-76.458667 21.455238-128.097524 0-54.467048-7.899429-97.328762-23.698286-128.633905C736.109714 507.855238 703.049143 487.619048 657.310476 487.619048zM711.143619 797.257143C697.636571 818.371048 679.497143 828.952381 656.676571 828.952381c-28.330667 0-48.37181-17.310476-60.074667-51.882667C588.946286 754.44419 585.142857 724.455619 585.142857 687.152762c0-49.590857 5.997714-87.088762 17.944381-112.542476C615.082667 549.10781 634.002286 536.380952 659.846095 536.380952c28.184381 0 47.152762 13.409524 56.905143 40.228571 9.752381 26.819048 14.628571 61.049905 14.628571 102.595048C731.428571 736.792381 724.650667 776.143238 711.143619 797.257143z" p-id="4618"></path></svg>